Open Season 3 2010 BDRip XVID AC3 HQ Hive-CM8


Thx Hive

CM8 Doing It Right The First Time :D

Why download a touched up rip of a rip BRrip
Get the real deal BDRip
Enjoy

Source Bluray

Video: 720x400 @bitrate 2200 2pass
Audio: DTS to AC3 5.1 @448
Sample: yes included

 
http://www.imdb.com/title/tt1646926/


General
Complete name : Open.Season.3.2010.BDRip.XVID.AC3.HQ.Hive-CM8.avi
Format : AVI
Format/Info : Audio Video Interleave
File size : 1.39 GiB
Duration : 1h 14mn
Overall bit rate : 2 658 Kbps
Writing application : Nandub v1.0rc2
Writing library : Nandub build 1853/release

Video
ID : 0
Format : MPEG-4 Visual
Format profile : Advanced Simple@L5
Format settings, BVOP : Yes
Format settings, QPel : Yes
Format settings, GMC : No warppoints
Format settings, Matrix : Default (H.263)
Muxing mode : Packed bitstream
Codec ID : XVID
Codec ID/Hint : XviD
Duration : 1h 14mn
Bit rate : 2 201 Kbps
Width : 720 pixels
Height : 400 pixels
Display aspect ratio : 16:9
Frame rate : 23.976 fps
Color space : YUV
Chroma subsampling : 4:2:0
Bit depth : 8 bits
Scan type : Progressive
Bits/(Pixel*Frame) : 0.319
Stream size : 1.15 GiB (83%)
Writing library : XviD 1.2.1 (UTC 2008-12-04)

Audio
ID : 1
Format : AC-3
Format/Info : Audio Coding 3
Mode extension : CM (complete main)
Codec ID : 2000
Duration : 1h 14mn
Bit rate mode : Constant
Bit rate : 448 Kbps
Channel(s) : 6 channels
Channel positions : Front: L C R, Side: L R, LFE
Sampling rate : 48.0 KHz
Bit depth : 16 bits
Stream size : 239 MiB (17%)
Alignment : Split accross interleaves
Interleave, duration : 42 ms (1.00 video frame)
Interleave, preload duration : 500 ms



Ciara Bravo ... Gesalita (voice)
Cody Cameron ... Mr. Weenie (voice)
Karley Scott Collins ... Gisela (voice)
Crispin Glover ... Fifi (voice)
Jane Krakowski ... Giselle (voice)
Sean Mullen ... Roger (voice)
Steve Schirripa ... Roberto (voice)
Dana Snyder ... Alistair (voice)
Matthew W. Taylor ... Elliot (voice)
Gina Torres ... Ursa (voice) 


Boog, Elliot and other forest wildies return with an all-new andenture, 
this time in a Big Top Circus! (who would've thought) The comedy begins 
when Boog's pals choose their family obligations over the annual guy's trip, 
and a dissapointed Boog decides to take a trip of his own, which leads him right 
into the middle of a circus ring.





================================== 
http://thepiratebay.org/user/hiest
==================================





Screen Shots:
 
http://img27.imageshack.us/img27/2811/14123073.png
 
http://img814.imageshack.us/img814/2574/opop.png
 
http://img210.imageshack.us/img210/4781/opopop.png
 
http://img94.imageshack.us/img94/5712/opopopopi.png
 
http://img706.imageshack.us/img706/2783/opopopopop.png
 
http://img714.imageshack.us/img714/8210/opopopopopop.png
 
http://img204.imageshack.us/img204/3258/opopopopopopopop.png

